<?xml version="1.0" encoding="UTF-8"?>
<!DOCTYPE svg PUBLIC "-//W3C//DTD SVG 1.1//EN" "http://www.w3.org/Graphics/SVG/1.1/DTD/svg11.dtd">
<!-- Creator: CorelDRAW -->
<svg xmlns="http://www.w3.org/2000/svg" xml:space="preserve" width="600px" height="214px" version="1.1" style="shape-rendering:geometricPrecision; text-rendering:geometricPrecision; image-rendering:optimizeQuality; fill-rule:evenodd; clip-rule:evenodd"
viewBox="0 0 83.16 29.64"
 xmlns:xlink="http://www.w3.org/1999/xlink"
 xmlns:xodm="http://www.corel.com/coreldraw/odm/2003">
 <defs>
  <style type="text/css">
   <![CDATA[
    .fil1 {fill:white}
    .fil2 {fill:white;fill-rule:nonzero}
    .fil0 {fill:url(#id0)}
   ]]>
  </style>
  <linearGradient id="id0" gradientUnits="userSpaceOnUse" x1="32.54" y1="8.1" x2="48.74" y2="8.1">
   <stop offset="0" style="stop-opacity:1; stop-color:#FF3DFF"/>
   <stop offset="0.490196" style="stop-opacity:1; stop-color:#964CFF"/>
   <stop offset="1" style="stop-opacity:1; stop-color:#2D5BFF"/>
  </linearGradient>
 </defs>
 <g id="圖層_x0020_1">
  <metadata id="CorelCorpID_0Corel-Layer"/>
  <path class="fil0" d="M40.64 2.91c-0.9,0 -1.75,0.23 -2.49,0.64l-2.11 -2.11c1.31,-0.91 2.89,-1.44 4.6,-1.44 4.47,0 8.1,3.63 8.1,8.1 0,4.47 -3.63,8.09 -8.1,8.09 -4.47,0 -8.1,-3.62 -8.1,-8.09 0,-1.71 0.54,-3.3 1.44,-4.61l2.11 2.12c-0.4,0.74 -0.63,1.58 -0.63,2.49 0,1.43 0.58,2.73 1.51,3.66 0.94,0.94 2.24,1.52 3.67,1.52 0.9,0 1.75,-0.23 2.49,-0.63l-3.91 -3.91 2.06 -2.06 3.91 3.91c0.41,-0.74 0.64,-1.59 0.64,-2.49 0,-1.44 -0.58,-2.73 -1.52,-3.67 -0.94,-0.94 -2.24,-1.52 -3.67,-1.52z"/>
  <polygon class="fil1" points="14.33,0 17.24,0 17.24,0.94 17.27,0.95 17.24,0.98 17.24,16.19 14.33,16.19 14.33,5.09 10.11,11.05 10.09,11.11 10.07,11.11 7.2,11.11 7.18,11.11 7.18,11.08 2.94,5.09 2.94,16.19 0.02,16.19 0.02,0.98 0,0.95 0.02,0.94 0.02,0 2.94,0 8.63,8.08 "/>
  <path class="fil1" d="M62.94 7.65c-0.78,0 -1.49,0.32 -2,0.82 -0.51,0.51 -0.82,1.22 -0.82,2 0,0.77 0.31,1.48 0.82,1.99 0.51,0.51 1.22,0.82 2,0.82 0.77,0 1.48,-0.31 1.99,-0.82 0.51,-0.51 0.82,-1.22 0.82,-1.99 0,-0.78 -0.31,-1.49 -0.82,-2 -0.51,-0.5 -1.22,-0.82 -1.99,-0.82zm-5.78 -7.65l2.91 0 0 5.51c0.84,-0.49 1.82,-0.77 2.87,-0.77 3.16,0 5.72,2.56 5.72,5.73 0,3.16 -2.56,5.72 -5.72,5.72 -1.05,0 -2.03,-0.28 -2.87,-0.76l0 0.76 -2.91 0 0 -16.19z"/>
  <path class="fil1" d="M76.63 20.51l1.66 0 0 0.43c0.47,-0.27 1.02,-0.43 1.6,-0.43 1.81,0 3.27,1.46 3.27,3.27 0,1.8 -1.46,3.26 -3.27,3.26 -0.58,0 -1.13,-0.15 -1.6,-0.42l0 3.02 -1.66 0 0 -5.86 0 -3.27zm3.26 1.66c-0.44,0 -0.84,0.18 -1.13,0.47 -0.29,0.29 -0.47,0.69 -0.47,1.14 0,0.44 0.18,0.84 0.47,1.13 0.29,0.29 0.69,0.47 1.13,0.47 0.45,0 0.85,-0.18 1.14,-0.47 0.29,-0.29 0.47,-0.69 0.47,-1.13 0,-0.45 -0.18,-0.85 -0.47,-1.14 -0.29,-0.29 -0.69,-0.47 -1.14,-0.47z"/>
  <path class="fil1" d="M74.23 7.65l0 -2.91 1.96 0 0 -3.87 2.91 -0.87 0 4.74 2.95 0 0 2.91 -2.95 0 0 4.66c0,0.54 0.44,0.97 0.97,0.97l1.98 0 0 2.91 -2.95 0c-1.6,0 -2.91,-1.3 -2.91,-2.91l0 -5.63 -1.96 0z"/>
  <path class="fil2" d="M50.11 4.69l2.96 0 0 0.76c0.82,-0.45 1.76,-0.71 2.76,-0.71l0 2.91c-0.77,0 -1.48,0.32 -1.99,0.82 -0.38,0.39 -0.66,0.88 -0.77,1.44 0,2.11 0,4.21 0,6.35l-3.01 0 0 -11.57 0.05 0z"/>
  <g id="_1924028528624">
   <rect class="fil1" x="69.99" y="4.74" width="2.91" height="11.47"/>
   <circle class="fil1" cx="71.44" cy="1.46" r="1.46"/>
  </g>
  <circle class="fil1" cx="62.55" cy="26.19" r="0.83"/>
  <path class="fil1" d="M72.61 20.49c1.8,0 3.26,1.46 3.26,3.26 0,1.8 -1.46,3.27 -3.26,3.27 -1.8,0 -3.26,-1.47 -3.26,-3.27 0,-1.8 1.46,-3.26 3.26,-3.26zm1.14 2.13c-0.3,-0.29 -0.7,-0.47 -1.14,-0.47 -0.44,0 -0.84,0.18 -1.13,0.47 -0.29,0.29 -0.47,0.69 -0.47,1.13 0,0.45 0.18,0.85 0.47,1.14 0.29,0.29 0.69,0.47 1.13,0.47 0.44,0 0.84,-0.18 1.14,-0.47 0.29,-0.29 0.47,-0.69 0.47,-1.14 0,-0.44 -0.18,-0.84 -0.47,-1.13z"/>
  <path class="fil1" d="M64.13 22.15l0 -1.66 1.12 0 0 -2.2 1.66 -0.5 0 2.7 1.68 0 0 1.66 -1.68 0 0 2.65c0,0.31 0.25,0.56 0.55,0.56l1.13 0 0 1.66 -1.68 0c-0.91,0 -1.66,-0.75 -1.66,-1.66l0 -3.21 -1.12 0z"/>
  <polygon class="fil1" points="21.58,20.8 18.99,27.15 22.15,27.15 24.7,20.84 24.7,20.84 25.01,20.08 25.31,19.33 26.48,16.44 31.22,4.74 28.08,4.74 24.9,12.54 21.74,4.74 18.59,4.74 23.33,16.41 21.54,20.8 "/>
 </g>
</svg>
