<?xml version="1.0" encoding="UTF-8"?>
<!DOCTYPE svg PUBLIC "-//W3C//DTD SVG 1.1//EN" "http://www.w3.org/Graphics/SVG/1.1/DTD/svg11.dtd">
<!-- Creator: CorelDRAW -->
<svg xmlns="http://www.w3.org/2000/svg" xml:space="preserve" width="64px" height="64px" version="1.1" style="shape-rendering:geometricPrecision; text-rendering:geometricPrecision; image-rendering:optimizeQuality; fill-rule:evenodd; clip-rule:evenodd"
viewBox="0 0 4.98 4.98"
 xmlns:xlink="http://www.w3.org/1999/xlink"
 xmlns:xodm="http://www.corel.com/coreldraw/odm/2003">
 <defs>
  <style type="text/css">
   <![CDATA[
    .fil0 {fill:url(#id0)}
   ]]>
  </style>
  <linearGradient id="id0" gradientUnits="userSpaceOnUse" x1="0" y1="2.49" x2="4.98" y2="2.49">
   <stop offset="0" style="stop-opacity:1; stop-color:#FF3DFF"/>
   <stop offset="0.490196" style="stop-opacity:1; stop-color:#964CFF"/>
   <stop offset="1" style="stop-opacity:1; stop-color:#2D5BFF"/>
  </linearGradient>
 </defs>
 <g id="圖層_x0020_1">
  <metadata id="CorelCorpID_0Corel-Layer"/>
  <path class="fil0" d="M2.49 0.9c-0.28,0 -0.54,0.07 -0.76,0.19l-0.65 -0.65c0.4,-0.28 0.89,-0.44 1.41,-0.44 1.38,0 2.49,1.12 2.49,2.49 0,1.38 -1.11,2.49 -2.49,2.49 -1.37,0 -2.49,-1.11 -2.49,-2.49 0,-0.52 0.16,-1.01 0.44,-1.41l0.65 0.65c-0.12,0.22 -0.19,0.48 -0.19,0.76 0,0.44 0.17,0.84 0.46,1.13 0.29,0.29 0.69,0.47 1.13,0.47 0.28,0 0.54,-0.07 0.77,-0.2l-1.2 -1.2 0.63 -0.63 1.2 1.2c0.13,-0.23 0.2,-0.49 0.2,-0.77 0,-0.44 -0.18,-0.84 -0.47,-1.13 -0.29,-0.29 -0.69,-0.46 -1.13,-0.46z"/>
 </g>
</svg>
