<?xml version="1.0" encoding="UTF-8"?>
<!DOCTYPE svg PUBLIC "-//W3C//DTD SVG 1.1//EN" "http://www.w3.org/Graphics/SVG/1.1/DTD/svg11.dtd">
<!-- Creator: CorelDRAW -->
<svg xmlns="http://www.w3.org/2000/svg" xml:space="preserve" width="600px" height="214px" version="1.1" style="shape-rendering:geometricPrecision; text-rendering:geometricPrecision; image-rendering:optimizeQuality; fill-rule:evenodd; clip-rule:evenodd"
viewBox="0 0 189.1 67.41"
 xmlns:xlink="http://www.w3.org/1999/xlink"
 xmlns:xodm="http://www.corel.com/coreldraw/odm/2003">
 <defs>
  <style type="text/css">
   <![CDATA[
    .fil2 {fill:#030303}
    .fil1 {fill:#2D5BFF}
    .fil4 {fill:#6D5BFF}
    .fil0 {fill:#FF3DFF}
    .fil3 {fill:#2D5BFF;fill-rule:nonzero}
    .fil5 {fill:url(#id0)}
   ]]>
  </style>
  <linearGradient id="id0" gradientUnits="userSpaceOnUse" x1="74.01" y1="18.41" x2="110.83" y2="18.41">
   <stop offset="0" style="stop-opacity:1; stop-color:#FF3DFF"/>
   <stop offset="0.490196" style="stop-opacity:1; stop-color:#964CFF"/>
   <stop offset="1" style="stop-opacity:1; stop-color:#2D5BFF"/>
  </linearGradient>
 </defs>
 <g id="圖層_x0020_1">
  <metadata id="CorelCorpID_0Corel-Layer"/>
  <polygon class="fil0" points="32.59,0 39.21,0 39.21,2.13 39.27,2.15 39.21,2.23 39.21,36.83 32.59,36.83 32.59,11.58 23,25.13 22.94,25.27 22.89,25.27 16.37,25.27 16.32,25.27 16.32,25.2 6.68,11.58 6.68,36.83 0.06,36.83 0.06,2.23 0,2.15 0.06,2.13 0.06,0 6.68,0 19.63,18.38 "/>
  <path class="fil1" d="M143.11 17.4c-1.77,0 -3.37,0.71 -4.53,1.87 -1.15,1.16 -1.87,2.76 -1.87,4.53 0,1.77 0.72,3.37 1.87,4.53 1.16,1.16 2.76,1.88 4.53,1.88 1.77,0 3.37,-0.72 4.53,-1.88 1.16,-1.16 1.88,-2.76 1.88,-4.53 0,-1.77 -0.72,-3.37 -1.88,-4.53 -1.16,-1.16 -2.76,-1.87 -4.53,-1.87zm-13.13 -17.4l6.62 0 0 12.52c1.92,-1.11 4.14,-1.74 6.51,-1.74 7.2,0 13.03,5.83 13.03,13.02 0,7.19 -5.83,13.03 -13.03,13.03 -2.37,0 -4.59,-0.64 -6.51,-1.75l0 1.75 -6.62 0 0 -36.83z"/>
  <path class="fil2" d="M174.25 46.65l3.77 0 0 0.96c1.08,-0.61 2.33,-0.96 3.65,-0.96 4.1,0 7.43,3.32 7.43,7.42 0,4.1 -3.33,7.42 -7.43,7.42 -1.32,0 -2.57,-0.35 -3.65,-0.96l0 6.88 -3.77 0 0 -13.34 0 -7.42zm7.42 3.77c-1,0 -1.92,0.41 -2.58,1.07 -0.66,0.66 -1.07,1.57 -1.07,2.58 0,1.01 0.41,1.92 1.07,2.58 0.66,0.66 1.58,1.07 2.58,1.07 1.01,0 1.93,-0.41 2.59,-1.07 0.66,-0.66 1.06,-1.57 1.06,-2.58 0,-1.01 -0.4,-1.92 -1.06,-2.58 -0.66,-0.66 -1.58,-1.07 -2.59,-1.07z"/>
  <path class="fil1" d="M168.79 17.4l0 -6.62 4.46 0 0 -8.79 6.62 -1.99 0 10.78 6.71 0 0 6.62 -6.71 0 0 10.6c0,1.21 0.99,2.21 2.21,2.21l4.5 0 0 6.62 -6.71 0c-3.64,0 -6.62,-2.98 -6.62,-6.62l0 -12.81 -4.46 0z"/>
  <path class="fil3" d="M113.96 10.67l6.73 0 0 1.72c1.86,-1.03 4,-1.61 6.27,-1.61l0 6.62c-1.76,0 -3.37,0.71 -4.52,1.87 -0.88,0.88 -1.5,2 -1.75,3.26 0,4.81 0,9.59 0,14.44l-6.84 0 0 -26.3 0.11 0z"/>
  <g id="_1888250102336">
   <rect class="fil1" x="159.15" y="10.78" width="6.62" height="26.08"/>
   <circle class="fil1" cx="162.46" cy="3.31" r="3.31"/>
  </g>
  <circle class="fil4" cx="142.23" cy="59.55" r="1.89"/>
  <path class="fil2" d="M165.11 46.59c4.1,0 7.43,3.32 7.43,7.42 0,4.1 -3.33,7.42 -7.43,7.42 -4.09,0 -7.42,-3.32 -7.42,-7.42 0,-4.1 3.33,-7.42 7.42,-7.42zm2.58 4.84c-0.66,-0.66 -1.57,-1.07 -2.58,-1.07 -1,0 -1.92,0.41 -2.58,1.07 -0.66,0.66 -1.07,1.57 -1.07,2.58 0,1.01 0.41,1.92 1.07,2.58 0.66,0.66 1.58,1.07 2.58,1.07 1.01,0 1.92,-0.41 2.58,-1.07 0.67,-0.66 1.07,-1.57 1.07,-2.58 0,-1.01 -0.4,-1.92 -1.07,-2.58z"/>
  <path class="fil1" d="M92.42 6.62c-2.06,0 -3.99,0.52 -5.67,1.45l-4.8 -4.81c2.97,-2.05 6.58,-3.26 10.47,-3.26 10.17,0 18.41,8.24 18.41,18.41 0,10.17 -8.24,18.41 -18.41,18.41 -10.17,0 -18.41,-8.24 -18.41,-18.41 0,-3.89 1.2,-7.49 3.26,-10.47l4.8 4.81c-0.92,1.68 -1.45,3.61 -1.45,5.66 0,3.26 1.32,6.21 3.46,8.34 2.13,2.14 5.08,3.46 8.34,3.46 3.26,0 6.2,-1.32 8.34,-3.46 2.13,-2.13 3.45,-5.08 3.45,-8.34 0,-3.25 -1.32,-6.2 -3.45,-8.34 -2.14,-2.13 -5.08,-3.45 -8.34,-3.45z"/>
  <path class="fil2" d="M145.83 50.36l0 -3.77 2.55 0 0 -5.01 3.77 -1.13 0 6.14 3.83 0 0 3.77 -3.83 0 0 6.04c0,0.7 0.57,1.26 1.26,1.26l2.57 0 0 3.77 -3.83 0c-2.08,0 -3.77,-1.69 -3.77,-3.77l0 -7.3 -2.55 0z"/>
  <polygon class="fil0" points="49.06,47.31 43.19,61.73 50.36,61.73 56.17,47.39 56.17,47.39 56.86,45.67 57.56,43.95 60.22,37.39 70.99,10.78 63.86,10.78 56.63,28.52 49.44,10.78 42.28,10.78 53.04,37.32 48.97,47.31 "/>
  <path class="fil5" d="M92.42 6.62c-2.06,0 -3.99,0.52 -5.67,1.45l-4.8 -4.81c2.97,-2.05 6.58,-3.26 10.47,-3.26 10.17,0 18.41,8.24 18.41,18.41 0,10.17 -8.24,18.42 -18.41,18.42 -10.17,0 -18.41,-8.25 -18.41,-18.42 0,-3.89 1.2,-7.49 3.26,-10.47l4.8 4.81c-0.92,1.68 -1.45,3.61 -1.45,5.66 0,3.26 1.32,6.21 3.46,8.34 2.13,2.14 5.08,3.46 8.34,3.46 2.05,0 3.98,-0.53 5.66,-1.45l-8.89 -8.9 4.68 -4.68 8.89 8.9c0.93,-1.68 1.45,-3.61 1.45,-5.67 0,-3.25 -1.32,-6.2 -3.45,-8.34 -2.14,-2.13 -5.08,-3.45 -8.34,-3.45z"/>
 </g>
</svg>
